<?xml version="1.0" encoding="UTF-8"?>
<svg id="Camada_2" data-name="Camada 2" xmlns="http://www.w3.org/2000/svg" viewBox="0 0 200 200">
  <defs>
    <style>
      .cls-1 {
        fill: #ffc0fe;
      }

      .cls-2 {
        fill: #006060;
      }
    </style>
  </defs>
  <g id="Camada_1-2" data-name="Camada 1">
    <rect class="cls-1" width="200" height="200"/>
    <path class="cls-2" d="M99.97,199.68l-3.98-28.16c-1.11-7.84-2.76-15.28-4.99-22.84-5.69-19.33-14.9-31.05-34.24-37.84-7.73-2.71-15.41-4.77-23.57-5.93L0,100.16l33.28-4.8c7.92-1.14,15.4-3.15,22.94-5.75,18.72-6.45,28.29-17.32,34.21-35.99,2.29-7.22,4.05-14.33,5.14-21.87L100.09.32l4.51,31.83c.99,6.97,2.62,13.49,4.64,20.2,5.8,19.25,15.15,30.5,34.36,37.2,8.11,2.83,16.19,4.88,24.73,6.1l31.68,4.51-32.26,4.58c-8.33,1.18-16.17,3.25-24.09,5.96-19.31,6.77-28.66,17.95-34.51,37.25-2.01,6.63-3.64,13.09-4.63,19.98l-4.54,31.75Z"/>
  </g>
</svg>