<?xml version="1.0" encoding="UTF-8"?>
<svg id="Camada_1" data-name="Camada 1" xmlns="http://www.w3.org/2000/svg" viewBox="0 0 1920 1920">
  <defs>
    <style>
      .cls-1 {
        fill: #ffc0fe;
      }

      .cls-2 {
        fill: #004947;
      }
    </style>
  </defs>
  <rect class="cls-2" width="1920" height="1920"/>
  <path class="cls-1" d="M736.86,1751.06l-180.77.42-.61-372.65c-141.98-16.42-301.32-82.04-374.52-204.05-49.85-83.1-47.92-181,3.97-262.25,78.08-122.25,229.74-180.14,370.43-198.62,5.04-248.84,175.26-457.43,402.28-523.19,244.27-70.76,498.56,32.14,627.63,239.19,135.49,217.36,106.02,486.69-61.9,675.65,148.52,189.05,228.89,414.12,251.87,645.99l-182.77-.53c-23.86-192.08-89.72-381.87-212.4-533.84-207.98,110.6-407.83,147.11-642.97,164.28l-.24,369.62ZM1397.58,973.04c108.53-128.42,123.57-313.74,28.34-455.16-90.75-134.77-258.95-201.92-423.43-151.41-147.37,45.26-264.09,186.67-263.79,348.44,256.57,22.7,464.55,97.62,658.89,258.13ZM1246.68,1082.42c-152.83-114.4-327.97-167.91-509.66-184.88l.06,300.1c176.73-9.38,347.73-41.56,509.6-115.22ZM555.9,1194.25l-.31-294.86c-72.95,9.5-229.93,65.36-228.73,148.18,1.19,82.21,153.32,136.82,229.04,146.68Z"/>
</svg>