<?xml version="1.0" encoding="UTF-8"?>
<svg id="Camada_2" data-name="Camada 2" xmlns="http://www.w3.org/2000/svg" viewBox="0 0 1617.12 1582.81">
  <defs>
    <style>
      .cls-1 {
        fill: #ffc0fe;
      }
    </style>
  </defs>
  <g id="Camada_1-2" data-name="Camada 1">
    <path class="cls-1" d="M501.88,1582.81h0c-50,.12-90.62-40.34-90.7-90.34l-.46-282.09c-141.98-16.42-301.32-82.04-374.52-204.05-49.85-83.1-47.92-181,3.97-262.25,78.08-122.25,229.74-180.14,370.43-198.62,5.04-248.84,175.26-457.43,402.28-523.19,244.27-70.76,498.56,32.14,627.63,239.19,135.49,217.36,106.02,486.69-61.9,675.65,125.56,159.82,202.4,345.38,237.05,539.02,9.96,55.67-32.74,106.83-89.3,106.66h-1.24c-43.53-.13-80.89-31.22-88.72-74.05-30.41-166.39-94.17-327.57-201.1-460.03-207.98,110.6-407.83,147.11-642.97,164.28l-.18,279.39c-.03,49.87-40.41,90.32-90.28,90.43ZM1252.82,804.58c108.53-128.42,123.57-313.74,28.34-455.16-90.75-134.77-258.95-201.92-423.43-151.41-147.37,45.26-264.09,186.67-263.79,348.44,256.57,22.7,464.55,97.62,658.89,258.13ZM1101.92,913.96c-152.83-114.4-327.97-167.91-509.66-184.88l.06,300.1c176.73-9.38,347.73-41.56,509.6-115.22ZM411.14,1025.78l-.31-294.86c-72.95,9.5-229.93,65.36-228.73,148.18,1.19,82.21,153.32,136.82,229.04,146.68Z"/>
  </g>
</svg>